<svg xmlns="http://www.w3.org/2000/svg" viewBox="0 -10 420 180">
  <rect x="20" y="60" width="160" height="110" rx="24" fill="#1E64B5"/>
  <path d="M110 115 85 95 85 145Z" fill="#ffffff"/>
  <path d="M130 115 105 95 105 145Z" fill="#ffffff" opacity="0.75"/>
  <path d="M100 25c0-19.3-15.7-35-35-35s-35 15.7-35 35c0 12.3 6.6 23.1 17.2 29.1l17.8 9.9 17.8-9.9C93.4 48.1 100 37.3 100 25Z" fill="#F6A333"/>
  <path d="M82.5 56.5h5a12 12 0 0 1 12 12V80a12 12 0 0 1-12 12h-5a12 12 0 0 1-12-12V68.5a12 12 0 0 1 12-12Z" fill="#F6A333"/>
  <path d="M146 24.5c0-12 9.7-21.7 21.7-21.7 12 0 21.7 9.7 21.7 21.7 0 7.9-4.2 15.1-11 19.1l-11.6 6.4-11.6-6.4c-6.8-4-11-11.2-11-19.1Z" fill="#F6A333"/>
  <path d="M168.5 64.3c0-6.8 5.5-12.3 12.3-12.3s12.3 5.5 12.3 12.3-5.5 12.3-12.3 12.3-12.3-5.5-12.3-12.3Z" fill="#F6A333"/>
  <path d="M206.3 28.4 210.9 38 221 38.6 212.9 45.3 215.5 55 206.3 49.7 197 55l2.6-9.7-8.1-6.7 10.1-.6 4.6-9.6Z" fill="#F6A333"/>
  <text x="210" y="90" fill="#1E64B5" font-family="'Montserrat', 'Segoe UI', 'Helvetica Neue', Arial, sans-serif" font-size="48" font-weight="700" letter-spacing="1">PLAYGEN</text>
  <text x="210" y="138" fill="#F6A333" font-family="'Montserrat', 'Segoe UI', 'Helvetica Neue', Arial, sans-serif" font-size="48" font-weight="700" letter-spacing="1">BIRTHDAY</text>
</svg>
